<svg viewBox="0 0 34 38" fill="none" xmlns="http://www.w3.org/2000/svg"><g clip-path="url(#a)"><path d="M6.14 20.72v-2.26c6.75-.92 13.56-1.36 20.38-1.33 0 .6 0 1.21-.06 1.82a26 26 0 0 1 6.07-1.82 16.71 16.71 0 0 0-6.9-8.2 17 17 0 0 0-20.34 2.05c-2.7 2.5-4.49 5.8-5.1 9.41l5.95.33Zm21.4 3.51c-1.18 1.28-1.41 1.2-1.41 3.45v9.18a16.5 16.5 0 0 0 7.55-13.86 17.13 17.13 0 0 0-.32-3.1 33.44 33.44 0 0 0-5.82 4.33Zm-21.11 1.49s-3.83-1.44-5.25-1.83a8.71 8.71 0 0 0-1.18-.28c.11 2.89.98 5.7 2.51 8.15a16.76 16.76 0 0 0 6.26 5.85l-2.34-11.89Z" fill="#FDC305"/><path d="M26.57 17.12a88.87 88.87 0 0 0-1.41-16.47s-.14-1.29-.9-.24c-.6 1.25-1 2.58-1.21 3.94-4.3-.27-8.63-.16-12.91.34-.8-2.69-2.2-3.94-2.88-3.69-.68.25-.73 3.31-.73 3.31l-.33 14.1a146.3 146.3 0 0 1 20.37-1.29Z" fill="#F06351"/><path d="M12.54 14c0-.09 1.02.68 1.43.92.41.24.62.42.62.59 0 .17-.28.34-.64.34s-.92-.12-1.01-.27h1.25a8.4 8.4 0 0 1-1.65-1.58Zm7.56.11-1.1 1.33c0 .06-.17.35.19.3a7.5 7.5 0 0 0 1.23-.29c.11 0 .07-.19-.11-.17-.18.02-.7.05-1.01.11l.85-1.26s.07-.13-.04-.02Zm-3.17 6.09c.47-.2.86-.56 1.1-1 .29-.65 0-.91-.44-1a2.47 2.47 0 0 0-1.76.34c-.4.36-.34.72-.05 1 .35.27.74.49 1.15.66Z" fill="#000"/><path d="M16.53 21.45c-.12.23-.27.43-.47.6-.29.23-.64.36-1 .38a2.19 2.19 0 0 1-1.5-.43c-.2-.12-.38-.27-.53-.44-.1-.11-.23-.2-.36-.26 0 0 .75 4.1 2.6 4.75 1.83.65 2.16-.75 2.22-1.13a5.56 5.56 0 0 0-.83-3.23c-.02-.31-.03-.11-.13-.24Z" fill="#F06351"/><path d="M14.87 22.59a3.5 3.5 0 0 1-2.39-1.47.14.14 0 0 1 .03-.15.14.14 0 0 1 .2 0 3.3 3.3 0 0 0 2.14 1.3 2.13 2.13 0 0 0 1.65-1l.14-.19.1.21s.37.76 1.01.8c.64.04 1.06-.41 1.63-1.28a.14.14 0 0 1 .15-.03c.02 0 .04.02.05.03.03.02.06.05.07.09 0 .04 0 .08-.02.11-.65 1-1.28 1.44-1.9 1.4a1.58 1.58 0 0 1-1.13-.76 2.28 2.28 0 0 1-1.73.94Z" fill="#000"/><path d="M26.52 18.92a58.92 58.92 0 0 0-5.12 5.19 31.85 31.85 0 0 1-5.35 4.89c-.22-.53-1.64-1.51-1.64-1.51s-3.16-2.14-5.23-3.82a34.35 34.35 0 0 1-3.17-3l-2.02-.11a22.8 22.8 0 0 0 12.13 8.8c.87-.14 3.3-1.86 5.13-3.26a58.46 58.46 0 0 0 6-5.89c.51-.59.9-1.27 1.15-2-1.1.39-1.88.71-1.88.71Z" fill="#F06351"/></g><defs><clipPath id="a"><path fill="#fff" d="M0 0h33.68v37.61h-33.68z"/></clipPath></defs></svg>